<svg xmlns="http://www.w3.org/2000/svg" viewBox="0 0 1200 600">
  <rect width="1200" height="600" fill="#ff0000"/>
  <rect x="300" y="0" width="600" height="600" fill="#ffffff"/>
  <g transform="translate(600,300)" fill="#ff0000">
    <path d="M-90,-60 L-75,-45 L-60,-60 L-45,-45 L-60,-30 L-45,-15 L-60,0 L-45,15 L-60,30 L-75,45 L-90,60 L-75,75 L-60,60 L-45,75 L-30,60 L-15,75 L0,60 L15,75 L30,60 L45,75 L60,60 L75,75 L90,60 L75,45 L90,30 L75,15 L90,0 L75,-15 L90,-30 L75,-45 L90,-60 L75,-75 L60,-60 L45,-75 L30,-60 L15,-75 L0,-60 L-15,-75 L-30,-60 L-45,-75 L-60,-60 L-75,-75 Z M-30,-120 L-15,-105 L0,-120 L15,-105 L30,-120 L45,-105 L60,-120 L45,-135 L30,-120 L15,-135 L0,-120 L-15,-135 L-30,-120 L-45,-135 L-60,-120 L-45,-105 Z M-30,120 L-15,105 L0,120 L15,105 L30,120 L45,105 L60,120 L45,135 L30,120 L15,135 L0,120 L-15,135 L-30,120 L-45,135 L-60,120 L-45,105 Z"/>
  </g>
</svg>
